<svg xmlns="http://www.w3.org/2000/svg" width="81" height="19" fill="none"><path fill="#45B871" d="M14.788 1.4v10.99c0 1.255-.282 2.355-.848 3.3-.557.945-1.367 1.67-2.428 2.173-1.061.503-2.316.755-3.765.755-2.184 0-3.88-.558-5.089-1.673C1.45 15.822.846 14.288.846 12.344V1.399h3.59v10.399c0 1.309.263 2.27.79 2.881.527.612 1.398.918 2.614.918 1.178 0 2.03-.306 2.556-.918.535-.62.802-1.588.802-2.904V1.399h3.59Z"/><path fill="#242323" d="M17.519 13.46v-2.905h6.24v2.904h-6.24Zm16.313-9.307c-1.356 0-2.405.511-3.15 1.533-.743 1.015-1.114 2.433-1.114 4.253 0 3.788 1.42 5.681 4.263 5.681 1.193 0 2.638-.298 4.334-.894v3.02c-1.394.582-2.95.872-4.67.872-2.471 0-4.361-.747-5.67-2.242-1.31-1.503-1.964-3.656-1.964-6.46 0-1.766.322-3.312.964-4.636.643-1.333 1.565-2.351 2.766-3.056 1.208-.713 2.622-1.069 4.24-1.069 1.65 0 3.308.399 4.973 1.197L37.642 5.28a19.237 19.237 0 0 0-1.917-.79 5.72 5.72 0 0 0-1.894-.337Zm19.17 7.784c0 2.1-.538 3.738-1.614 4.915-1.077 1.177-2.576 1.766-4.497 1.766-1.2 0-2.262-.271-3.183-.813-.922-.542-1.631-1.32-2.127-2.336-.495-1.014-.743-2.192-.743-3.532 0-2.083.534-3.71 1.603-4.88s2.575-1.754 4.52-1.754c1.859 0 3.33.6 4.415 1.8 1.084 1.194 1.627 2.805 1.627 4.834Zm-9.353 0c0 2.967 1.096 4.45 3.288 4.45 2.17 0 3.254-1.483 3.254-4.45 0-2.935-1.092-4.403-3.277-4.403-1.146 0-1.979.38-2.498 1.138-.511.76-.767 1.848-.767 3.265Zm16.836 6.681c-1.603 0-2.854-.58-3.753-1.743-.898-1.162-1.348-2.792-1.348-4.891 0-2.107.453-3.745 1.36-4.915.914-1.177 2.176-1.766 3.788-1.766 1.688 0 2.974.624 3.857 1.87h.14c-.132-.921-.198-1.65-.198-2.184V.307h2.742v18.079h-2.138l-.476-1.685h-.128c-.876 1.278-2.157 1.917-3.846 1.917Zm.732-2.207c1.123 0 1.94-.314 2.452-.942.51-.635.774-1.661.79-3.079v-.383c0-1.619-.264-2.77-.79-3.45-.527-.682-1.352-1.023-2.475-1.023-.96 0-1.7.391-2.22 1.173-.518.775-.778 1.883-.778 3.323 0 1.426.252 2.514.755 3.265.504.744 1.259 1.116 2.266 1.116Zm17.8 1.975-.546-1.79h-.093c-.62.783-1.243 1.317-1.87 1.604-.628.279-1.434.418-2.417.418-1.263 0-2.25-.34-2.963-1.022-.705-.682-1.058-1.646-1.058-2.893 0-1.325.492-2.324 1.476-2.998.984-.674 2.483-1.042 4.496-1.104l2.22-.07v-.685c0-.821-.194-1.433-.581-1.836-.38-.41-.972-.616-1.778-.616-.658 0-1.29.097-1.894.29a14.29 14.29 0 0 0-1.743.686l-.883-1.952a9.332 9.332 0 0 1 2.29-.825c.828-.193 1.61-.29 2.346-.29 1.635 0 2.866.356 3.695 1.069.837.713 1.255 1.832 1.255 3.358v8.656h-1.952Zm-4.067-1.86c.992 0 1.786-.274 2.382-.824.604-.558.907-1.336.907-2.336v-1.115l-1.65.07c-1.286.046-2.224.263-2.812.65-.581.38-.872.965-.872 1.755 0 .573.17 1.018.512 1.336.34.31.852.465 1.533.465Z"/></svg>