<svg xmlns="http://www.w3.org/2000/svg" width="11" height="7" fill="none"><path fill="#E5E5E5" d="M0 0h11v7H0z"/><g clip-path="url(#a)"><path fill="#fff" d="M-955-76H965v5470H-955z"/><g clip-path="url(#b)"><path fill="#E4F5EB" d="M-955-76H965v1156H-955z"/><path fill="#575859" d="M-234.703 10.386h-2.991v-6.11h-5.607v6.11h-3.001V-3.77h3.001v5.548h5.607V-3.77h2.991v14.156ZM-229 4.954c0 1.071.175 1.882.523 2.43.355.549.93.823 1.724.823.787 0 1.352-.27 1.694-.813.349-.549.523-1.362.523-2.44 0-1.072-.174-1.875-.523-2.41-.349-.537-.92-.805-1.714-.805-.787 0-1.355.268-1.704.804-.348.53-.523 1.333-.523 2.411Zm7.485 0c0 1.762-.465 3.14-1.395 4.134-.929.994-2.223 1.491-3.882 1.491-1.039 0-1.956-.226-2.75-.677a4.572 4.572 0 0 1-1.83-1.966c-.426-.852-.639-1.846-.639-2.982 0-1.769.462-3.144 1.385-4.125.923-.98 2.22-1.471 3.892-1.471 1.039 0 1.956.226 2.75.677a4.523 4.523 0 0 1 1.83 1.947c.426.845.639 1.836.639 2.972Zm12.132 5.432h-2.954V4.063c0-.78-.132-1.365-.396-1.752-.259-.394-.669-.59-1.23-.59-.755 0-1.304.277-1.646.832-.342.555-.513 1.468-.513 2.74v5.093h-2.953V-.44h2.256l.397 1.384h.164c.291-.497.71-.884 1.259-1.161.549-.284 1.178-.426 1.888-.426 1.62 0 2.717.529 3.292 1.587h.261a2.935 2.935 0 0 1 1.278-1.171c.568-.278 1.207-.416 1.917-.416 1.227 0 2.153.316 2.779.948.633.627.949 1.634.949 3.021v7.059h-2.963V4.063c0-.78-.132-1.365-.397-1.752-.258-.394-.668-.59-1.229-.59-.723 0-1.265.257-1.627.774-.355.516-.532 1.336-.532 2.459v5.432Zm14.271-8.927c-.626 0-1.116.2-1.471.6-.355.394-.559.955-.61 1.685h4.144c-.013-.73-.204-1.291-.572-1.685-.368-.4-.865-.6-1.491-.6Zm.417 9.12c-1.743 0-3.105-.48-4.086-1.442-.981-.962-1.472-2.324-1.472-4.086 0-1.814.452-3.215 1.356-4.202.91-.994 2.165-1.491 3.766-1.491 1.53 0 2.721.435 3.573 1.307.852.871 1.278 2.075 1.278 3.611V5.71h-6.981c.032.84.281 1.494.745 1.966.465.47 1.117.707 1.956.707.652 0 1.269-.068 1.85-.204a9.282 9.282 0 0 0 1.82-.649v2.285a6.786 6.786 0 0 1-1.656.572c-.587.129-1.304.193-2.149.193Zm88.031-.193-1.413-3.931h-5.413l-1.384 3.93h-2.44l5.296-14.213h2.517l5.296 14.214h-2.459Zm-2.023-5.926-1.327-3.853a29.44 29.44 0 0 1-.755-2.44 21.586 21.586 0 0 1-.765 2.604l-1.278 3.69h4.125Zm8.384 5.926h-2.275V-4.68h2.275v15.066Zm5.539 0h-2.276V-4.68h2.276v15.066Zm14.678-12.374c-1.33 0-2.375.471-3.137 1.413-.762.943-1.142 2.243-1.142 3.902 0 1.737.364 3.05 1.094 3.941.735.89 1.797 1.336 3.185 1.336.6 0 1.181-.058 1.743-.174a21.561 21.561 0 0 0 1.752-.465V9.95c-1.11.42-2.369.63-3.776.63-2.072 0-3.663-.627-4.773-1.879-1.11-1.259-1.665-3.056-1.665-5.393 0-1.472.267-2.76.803-3.863.542-1.104 1.323-1.95 2.343-2.537s2.218-.881 3.592-.881c1.446 0 2.782.303 4.009.91l-.833 1.927a11.808 11.808 0 0 0-1.52-.59 5.322 5.322 0 0 0-1.675-.262Zm15.802 7c0 1.75-.45 3.115-1.346 4.096-.898.98-2.147 1.471-3.747 1.471-1 0-1.885-.226-2.653-.677-.768-.452-1.359-1.1-1.772-1.947-.413-.845-.62-1.826-.62-2.943 0-1.736.446-3.092 1.336-4.067.891-.974 2.147-1.462 3.767-1.462 1.549 0 2.775.5 3.679 1.501.904.994 1.356 2.337 1.356 4.028Zm-7.795 0c0 2.472.914 3.708 2.74 3.708 1.808 0 2.711-1.236 2.711-3.708 0-2.446-.91-3.67-2.73-3.67-.955 0-1.65.317-2.082.95-.426.632-.639 1.539-.639 2.72Zm17.97 5.374-.319-1.404h-.116c-.316.497-.768.887-1.356 1.171-.58.284-1.245.426-1.994.426-1.298 0-2.266-.322-2.905-.968-.639-.645-.958-1.623-.958-2.934v-7h2.294V6.28c0 .82.168 1.437.504 1.85.336.406.862.61 1.578.61.955 0 1.656-.284 2.101-.852.452-.575.678-1.533.678-2.876V-.323h2.285v10.709h-1.791ZM-43.641-.517c.459 0 .836.033 1.133.097l-.223 2.12a4.3 4.3 0 0 0-1.007-.115c-.91 0-1.649.296-2.217.89-.561.594-.842 1.366-.842 2.314v5.597h-2.276V-.323h1.782l.3 1.888h.116A4.26 4.26 0 0 1-45.49.045a3.326 3.326 0 0 1 1.85-.562Zm10.322 7.853c0 1.046-.381 1.85-1.143 2.41-.762.556-1.852.833-3.273.833-1.426 0-2.572-.216-3.437-.648V7.965c1.259.581 2.43.872 3.515.872 1.4 0 2.1-.423 2.1-1.269 0-.27-.077-.497-.231-.678-.155-.18-.41-.367-.765-.561a13.168 13.168 0 0 0-1.482-.659c-1.233-.477-2.069-.955-2.507-1.433-.433-.477-.65-1.097-.65-1.859 0-.916.369-1.626 1.105-2.13.742-.51 1.749-.765 3.02-.765 1.26 0 2.45.255 3.573.765l-.736 1.714c-1.155-.478-2.127-.716-2.914-.716-1.2 0-1.8.342-1.8 1.026 0 .336.154.62.464.852.316.232 1 .552 2.053.959.884.342 1.526.655 1.926.939.4.284.697.613.891.987.194.368.29.81.29 1.327Zm7.145 3.243c-1.665 0-2.97-.484-3.912-1.452-.936-.975-1.404-2.314-1.404-4.018 0-1.75.436-3.124 1.308-4.125.871-1 2.068-1.5 3.592-1.5 1.413 0 2.53.429 3.35 1.287.82.859 1.23 2.04 1.23 3.544v1.23h-7.136c.032 1.039.313 1.84.842 2.4.53.556 1.275.833 2.237.833.632 0 1.22-.058 1.762-.174a9.498 9.498 0 0 0 1.762-.6v1.85a6.984 6.984 0 0 1-1.685.56c-.568.11-1.216.165-1.946.165Zm-.416-9.372c-.723 0-1.304.23-1.743.687-.433.459-.69 1.127-.775 2.005h4.86c-.012-.885-.225-1.553-.638-2.005-.413-.458-.981-.687-1.704-.687Zm14.359 6.129c0 1.046-.381 1.85-1.143 2.41-.762.556-1.852.833-3.273.833-1.426 0-2.572-.216-3.437-.648V7.965c1.259.581 2.43.872 3.515.872 1.4 0 2.101-.423 2.101-1.269 0-.27-.078-.497-.232-.678-.155-.18-.41-.367-.765-.561a13.16 13.16 0 0 0-1.482-.659c-1.233-.477-2.069-.955-2.507-1.433-.433-.477-.65-1.097-.65-1.859 0-.916.369-1.626 1.105-2.13.742-.51 1.749-.765 3.02-.765 1.26 0 2.45.255 3.573.765l-.736 1.714c-1.155-.478-2.126-.716-2.914-.716-1.2 0-1.8.342-1.8 1.026 0 .336.154.62.464.852.316.232 1 .552 2.053.959.884.342 1.526.655 1.926.939.4.284.697.613.891.987.194.368.29.81.29 1.327ZM87.418.51c0 1.478-.484 2.61-1.453 3.398-.968.788-2.346 1.182-4.134 1.182H80.36v5.296h-2.314V-3.77h4.077c1.768 0 3.091.362 3.97 1.085.884.723 1.326 1.788 1.326 3.195Zm-7.059 2.633h1.23c1.188 0 2.06-.206 2.614-.62.555-.412.833-1.058.833-1.936 0-.813-.249-1.42-.746-1.82-.497-.4-1.271-.6-2.323-.6h-1.608v4.976Zm15.076-3.66c.458 0 .836.033 1.133.097l-.223 2.12a4.3 4.3 0 0 0-1.007-.115c-.91 0-1.65.296-2.217.89-.562.594-.843 1.366-.843 2.314v5.597h-2.275V-.323h1.781l.3 1.888h.117a4.259 4.259 0 0 1 1.385-1.52 3.325 3.325 0 0 1 1.849-.562Zm5.403 10.903h-2.276V-.323h2.276v10.709ZM98.427-3.16c0-.406.11-.72.329-.939.226-.22.545-.33.958-.33.401 0 .71.11.93.33.226.22.339.533.339.94 0 .386-.113.693-.339.919-.22.22-.529.33-.93.33-.413 0-.732-.11-.958-.33-.22-.226-.33-.532-.33-.92Zm9.992 13.74c-1.62 0-2.853-.472-3.699-1.414-.839-.95-1.259-2.308-1.259-4.076 0-1.801.439-3.186 1.317-4.154.885-.968 2.159-1.453 3.825-1.453 1.129 0 2.146.21 3.05.63l-.688 1.83c-.962-.375-1.756-.562-2.382-.562-1.852 0-2.778 1.23-2.778 3.69 0 1.2.229 2.103.687 2.71.465.6 1.142.9 2.033.9a5.82 5.82 0 0 0 2.876-.755v1.985c-.407.24-.842.41-1.307.514-.459.103-1.017.154-1.675.154Zm7.775-.194h-2.276V-.323h2.276v10.709ZM113.783-3.16c0-.406.109-.72.329-.939.226-.22.545-.33.958-.33.401 0 .711.11.93.33.226.22.339.533.339.94 0 .386-.113.693-.339.919-.219.22-.529.33-.93.33-.413 0-.732-.11-.958-.33-.22-.226-.329-.532-.329-.92Zm15.094 13.546h-2.285V3.802c0-.826-.167-1.443-.503-1.85-.329-.406-.855-.61-1.578-.61-.962 0-1.666.284-2.111.853-.445.568-.668 1.52-.668 2.856v5.335h-2.275V-.323h1.781l.32 1.404h.116c.323-.51.781-.904 1.375-1.181a4.607 4.607 0 0 1 1.975-.417c2.569 0 3.853 1.308 3.853 3.922v6.98Zm12.21-10.709v1.25l-1.83.338c.168.226.306.503.416.833.11.329.165.677.165 1.045 0 1.104-.381 1.972-1.143 2.605-.761.632-1.81.949-3.146.949-.343 0-.652-.026-.93-.078-.491.304-.736.659-.736 1.065 0 .246.113.43.339.552.232.123.655.184 1.268.184h1.869c1.181 0 2.079.252 2.692.755.613.504.92 1.23.92 2.179 0 1.214-.501 2.15-1.501 2.808-1.001.658-2.447.987-4.338.987-1.459 0-2.572-.258-3.34-.774-.768-.517-1.152-1.252-1.152-2.208 0-.658.206-1.213.619-1.665.42-.446 1.004-.755 1.753-.93a1.747 1.747 0 0 1-.755-.62 1.615 1.615 0 0 1-.291-.91c0-.4.113-.738.339-1.016.226-.278.562-.552 1.007-.823a3.023 3.023 0 0 1-1.356-1.162c-.342-.542-.513-1.175-.513-1.898 0-1.161.365-2.062 1.094-2.701.736-.639 1.782-.959 3.137-.959.304 0 .62.023.949.068.336.039.588.08.756.126h3.708Zm-8.414 12.374c0 .49.219.868.658 1.133.446.265 1.069.397 1.869.397 1.239 0 2.162-.178 2.769-.533.607-.355.91-.826.91-1.413 0-.465-.168-.797-.503-.998-.329-.193-.946-.29-1.85-.29h-1.723c-.652 0-1.172.152-1.559.455-.381.31-.571.726-.571 1.25Zm.978-8.908c0 .672.171 1.188.513 1.55.349.361.846.542 1.491.542 1.317 0 1.975-.704 1.975-2.111 0-.697-.164-1.233-.494-1.607-.322-.381-.816-.572-1.481-.572-.658 0-1.159.188-1.501.562-.335.374-.503.92-.503 1.636Zm81.786-6.913h4.202c1.95 0 3.357.284 4.222.852.871.568 1.307 1.466 1.307 2.692 0 .826-.213 1.514-.639 2.062-.426.549-1.039.894-1.84 1.036v.097c.994.187 1.724.558 2.188 1.114.472.548.707 1.294.707 2.236 0 1.272-.445 2.27-1.336 2.992-.884.716-2.117 1.075-3.699 1.075h-5.112V-3.77Zm2.314 5.848h2.227c.968 0 1.675-.151 2.121-.455.445-.31.668-.832.668-1.568 0-.665-.242-1.146-.726-1.443-.478-.297-1.24-.445-2.285-.445h-2.005v3.911Zm0 1.879V8.44h2.46c.968 0 1.697-.184 2.188-.552.497-.375.745-.962.745-1.762 0-.736-.251-1.282-.755-1.637-.503-.355-1.268-.532-2.295-.532h-2.343Zm12.81 6.429h-2.275V-4.68h2.275v15.066Zm12.761-5.374c0 1.75-.448 3.115-1.346 4.096-.897.98-2.146 1.471-3.747 1.471-1 0-1.884-.226-2.653-.677-.768-.452-1.358-1.1-1.771-1.947-.414-.845-.62-1.826-.62-2.943 0-1.736.445-3.092 1.336-4.067.891-.974 2.146-1.462 3.766-1.462 1.55 0 2.776.5 3.68 1.501.903.994 1.355 2.337 1.355 4.028Zm-7.794 0c0 2.472.913 3.708 2.74 3.708 1.807 0 2.711-1.236 2.711-3.708 0-2.446-.91-3.67-2.73-3.67-.956 0-1.65.317-2.082.95-.426.632-.639 1.539-.639 2.72Zm19.461-5.335v1.25l-1.83.338c.168.226.307.503.417.833.11.329.164.677.164 1.045 0 1.104-.38 1.972-1.142 2.605-.762.632-1.811.949-3.147.949-.342 0-.652-.026-.929-.078-.491.304-.736.659-.736 1.065 0 .246.113.43.339.552.232.123.655.184 1.268.184h1.869c1.181 0 2.078.252 2.691.755.614.504.92 1.23.92 2.179 0 1.214-.5 2.15-1.501 2.808-1 .658-2.446.987-4.337.987-1.459 0-2.572-.258-3.341-.774-.768-.517-1.152-1.252-1.152-2.208 0-.658.207-1.213.62-1.665.419-.446 1.004-.755 1.752-.93a1.752 1.752 0 0 1-.755-.62 1.621 1.621 0 0 1-.29-.91c0-.4.113-.738.339-1.016.225-.278.561-.552 1.007-.823a3.018 3.018 0 0 1-1.356-1.162c-.342-.542-.513-1.175-.513-1.898 0-1.161.365-2.062 1.094-2.701.736-.639 1.781-.959 3.137-.959.303 0 .62.023.949.068.336.039.587.08.755.126h3.708Zm-8.414 12.374c0 .49.22.868.659 1.133.445.265 1.068.397 1.869.397 1.239 0 2.162-.178 2.769-.533.606-.355.91-.826.91-1.413 0-.465-.168-.797-.504-.998-.329-.193-.945-.29-1.849-.29h-1.723c-.652 0-1.172.152-1.559.455-.381.31-.572.726-.572 1.25Zm.978-8.908c0 .672.171 1.188.514 1.55.348.361.845.542 1.491.542 1.316 0 1.975-.704 1.975-2.111 0-.697-.165-1.233-.494-1.607-.323-.381-.817-.572-1.481-.572-.659 0-1.159.188-1.501.562-.336.374-.504.92-.504 1.636ZM5.98 6.645a.62.62 0 0 1-.459-.218L1.225 1.681a1.073 1.073 0 0 1-.255-.643 1.17 1.17 0 0 1 .162-.695c.122-.194.296-.316.486-.339a.607.607 0 0 1 .524.215L5.98 4.472l3.838-4.1a.68.68 0 0 1 .248-.174.55.55 0 0 1 .279-.034c.094.014.184.051.267.111.083.06.156.141.215.239.066.097.116.212.146.336a1.244 1.244 0 0 1-.055.756.925.925 0 0 1-.191.294L6.431 6.484a.591.591 0 0 1-.451.161Z"/></g></g><defs><clipPath id="a"><path fill="#fff" d="M-955-76H965v5470H-955z"/></clipPath><clipPath id="b"><path fill="#fff" d="M-955-76H965v1156H-955z"/></clipPath></defs></svg>